<svg xmlns="http://www.w3.org/2000/svg" viewBox="0 0 141.78 185.56"><defs><style>.cls-1{fill:#fff;}.cls-2{fill:#181a2e;}.cls-3{fill:#f4b13c;}.cls-4{fill:#1c1c30;}</style></defs><title>logoMarca</title><g id="Camada_1_cópia" data-name="Camada 1 cópia"><path class="cls-1" d="M214.5,372.59a22,22,0,0,0-2.87-5,48,48,0,0,0-4-5.16c-2.08-2.32-3-4.32-2.7-7.53,1.42-13.4-5.51-24.68-17.94-29.88-2.05-.86-4.09-1.51-5.79-3.3-8.94-9.39-18-11-29.38-4.95-3.72,2-6.39,1.73-10-.18-11.11-5.84-20.42-4.13-28.93,4.91a14.16,14.16,0,0,1-5.14,3.14c-13.49,5.94-19.82,16.07-19,30.74a8.69,8.69,0,0,1-2.43,7c-11.12,12.49-13.24,26.45-6.07,41.65a15.58,15.58,0,0,1,1.46,8.26c-1,12.52,3.12,22.65,14.95,28.57A12.12,12.12,0,0,1,101,445c4,5.52,8.34,11.77,15.18,12.86a11.66,11.66,0,0,1,4.16,1.37,6.87,6.87,0,0,1,1.06.42l.09.05.39.16a18.94,18.94,0,0,0,1.81.56l2.11.14h0c0,.17,0,.34,0,.51a4.24,4.24,0,0,0,.51,2.93.92.92,0,0,1,0,1.23,3.53,3.53,0,0,0,0,4.09,1,1,0,0,1,0,1.33,3.56,3.56,0,0,0,0,4,1,1,0,0,1,0,1.33,3.53,3.53,0,0,0,0,4,1,1,0,0,1,0,1.33,3.56,3.56,0,0,0,1.23,5.19,13.21,13.21,0,0,1,3.75,3.11,20.73,20.73,0,0,0,3.61,2.84c2.32,1.5,4.66,3,6.91,4.61a7.3,7.3,0,0,0,9.32.06,69.47,69.47,0,0,1,6.5-4.29,20.72,20.72,0,0,0,6.8-5.88,3.6,3.6,0,0,1,1.21-1.08,3.77,3.77,0,0,0,1.52-5.54.89.89,0,0,1,0-1.12,3.62,3.62,0,0,0,0-4.2.86.86,0,0,1,0-1.12,3.64,3.64,0,0,0,0-4.2.88.88,0,0,1,0-1.13,3.62,3.62,0,0,0,0-4.2c-.2-.33-.43-.59-.1-1a4,4,0,0,0,.7-1.9l.08.05a1.46,1.46,0,0,1,1.48-1.11,1.27,1.27,0,0,1,.28,0h0l.45-.14a3.25,3.25,0,0,1,.58-.14,1.31,1.31,0,0,1,.48-.12,2.33,2.33,0,0,1,.49-.21,10,10,0,0,1,4.87-1.4c5-.36,8.88-4.68,12.49-8.5,2.79-2.94,4.22-7,8.19-9,11.62-5.7,15.8-15.65,15-27.93a18.72,18.72,0,0,1,1.65-9.42C219,392.53,219.1,382.17,214.5,372.59Z" transform="translate(-76.05 -313.2)"/></g><g id="Camada_1" data-name="Camada 1"><path class="cls-2" d="M207.61,362.45c-2.08-2.32-3-4.32-2.7-7.53,1.42-13.4-5.51-24.68-17.94-29.88-2.05-.86-4.09-1.51-5.79-3.3-8.94-9.39-18-11-29.38-4.95-3.72,2-6.39,1.73-10-.18-11.11-5.84-20.42-4.13-28.93,4.91a14.16,14.16,0,0,1-5.14,3.14c-13.49,5.94-19.82,16.07-19,30.74a8.69,8.69,0,0,1-2.43,7c-11.12,12.49-13.24,26.45-6.07,41.65a15.58,15.58,0,0,1,1.46,8.26c-1,12.52,3.12,22.65,14.95,28.57A12.12,12.12,0,0,1,101,445c4,5.52,8.34,11.77,15.18,12.86a11.66,11.66,0,0,1,4.16,1.37,6.87,6.87,0,0,1,1.06.42l.09.05.39.16a18.94,18.94,0,0,0,1.81.56l2.11.14h2.89a1.49,1.49,0,0,1,1.48-1.08H132a1.84,1.84,0,0,1,.41.06,3.52,3.52,0,0,1,2.55-.88,8,8,0,0,1,3.46-1.39c6.28-2,12.65-.6,19,0l0,.76c3.85.49,7.4,1.39,10.41,3.46a1.46,1.46,0,0,1,1.48-1.11,1.27,1.27,0,0,1,.28,0h0l.45-.14a3.25,3.25,0,0,1,.58-.14,1.31,1.31,0,0,1,.48-.12,2.33,2.33,0,0,1,.49-.21,10,10,0,0,1,4.87-1.4c5-.36,8.88-4.68,12.49-8.5,2.79-2.94,4.22-7,8.19-9,11.62-5.7,15.8-15.65,15-27.93a18.72,18.72,0,0,1,1.65-9.42C220.78,388.53,218.6,374.71,207.61,362.45Zm1,39a20.35,20.35,0,0,0-2.08,11.66c.91,8.15-1.38,15.5-8.29,20.72-2.34,1.77-4.67,3.35-5.19-1.62a9.24,9.24,0,0,0-2.14-5c-5.94-6.42-9.3-13.23-5.2-22.06a2.89,2.89,0,0,0-2.21-4.27c-2.67-.43-3.09,1.64-3.27,3.46-1,10.05-5.83,16.44-16.38,17.57a2.59,2.59,0,0,0-2.61,2.84c.13,2.19,1.88,2.46,3.59,2.44a18.7,18.7,0,0,0,11.44-4c2.44-1.89,3.82-1.23,5.64.7,6.48,6.88,8,14.31,4,20.62-5,7.9-16.22,13-24.07,8.46-10.68-6.21-19.23-5.13-30.13,0-13.81,6.46-30.37-8.56-27.73-23.54,1.1-6.24,5.21-10.16,11.5-11.06,6.06-.87,9.47,2.54,12.42,7.2,1.39,2.19,1,7.61,5.42,5.41,4-2,.49-5.51-.7-7.91-1.34-2.67-1.28-4.08,1.12-6.13a9.67,9.67,0,0,0,3-10.62c-.5-1.7-1.14-3.1-3.27-3-2.45.14-2.14,1.88-2.22,3.54-.34,7.44-1.56,8.3-9,6.46-13.6-3.37-23.72,5.4-24.48,22-9.32-5.77-11.6-14-10.52-23.25a16,16,0,0,0-1.67-9.35c-5.18-10.9-5.74-21.73,1.31-32.1,1.17-1.72,2.59-5.78,4.6-3.87s6.23,3.9,4,9c-4.21,9.57-2,16.55,6.17,21.74,1.68,1.06,3.72,3.76,5.82,1.12,2.33-2.94-.5-4.24-2.58-5.58-3.65-2.37-6.27-5.37-5.74-10.1.49-4.37,1-8.57,7.36-5.8,1.85.81,4.35,1.18,5.13-1.57s-1.61-3.32-3.57-4c-9.8-3.25-13.54-7.88-13.75-17.05-.25-11.24,4.84-20.55,13.38-23.58,4.44-1.58,9-2,11.34,3.65.82,2,2.2,3.17,4.29,2.08,2.26-1.18,1.28-3.15.61-4.84-1.19-3-3.53-5-6.13-6.71,5.57-6.62,12.69-8.12,20.95-3.44,5.67,3.21,10.36,3.28,16,0,8.5-4.84,15.63-3.36,22.11,3.78a15.79,15.79,0,0,0,6.53,4.26c10.25,3.86,16,12.28,15.89,22.6-.11,10.71-11.32,17-20.78,11.91-2-1.07-1.93-2.13-1.64-3.91a11.67,11.67,0,0,0-3-9.68c-.93-1.1-2.16-2.19-3.71-1.05s-1.75,2.22-.9,4.19c3.52,8.22,2.13,10.57-6.9,12.24-1.55.29-3,.56-3,2.33s.93,3.12,3.05,3.05c1.44-.05,3.32.54,4.25-.15,5.52-4.12,10.76-.69,16.24-.12,6.55.67,5.89,4.5,5,8.69-.46,2.26-2.92,5,.65,6.15,3.08,1,3.95-2.2,4.68-4.52.54-1.73,1.54-4,.9-5.31-3.15-6.45,3-7.75,5.69-10.82,1.79-2,2.77.33,3.76,1.32C212.52,375.2,214.58,389,208.65,401.45Z" transform="translate(-76.05 -313.2)"/><path class="cls-3" d="M140.18,408.24c-.12-4.33-1.65-8.18-6.41-8.14-4.4,0-6.13,3.21-5.58,7.77.53,4.32-2.53,3.08-4.85,2.57-14-3.05-24.65,3.68-28.25,18.11-5-4.19-5-9.75-4.53-15.1a23.4,23.4,0,0,0-2.46-13c-4.21-8.54-4.78-17.35.06-26,.73-1.29,1.1-3.65,3.29-2.74s.85,2.77.45,4.28c-3.11,11.5-.18,19.36,9.18,24.78,3.56,2.05,7.18,2.84,9.72-1.17,2.42-3.81.27-6.48-3-8.65a20.68,20.68,0,0,1-4.51-4.1,4.86,4.86,0,0,1-.5-5.78c1.12-2,2.94-1.13,4.42-.81,4.22.9,7.17-.74,7.84-4.78.65-3.87-2.14-5.72-5.69-6.77-8.38-2.47-11.8-6.81-12.09-14.9-.33-9,5-17.81,12.31-20.29,3-1,5.65-.89,7.14,2.61s4.17,5.4,7.85,3.63c3.89-1.87,4.07-5.29,2.41-8.95a3.93,3.93,0,0,1-.43-1.15c-.24-2.31-4.66-3.7-2.37-6s6-2.23,9.33-.94a16,16,0,0,1,3.44,1.3c6.67,4.76,12.95,4.29,20,.15s12.15-2.8,17.61,3.21a19.64,19.64,0,0,0,8.07,5.31c8.52,3.19,13.21,9.48,13.94,18.56a10.4,10.4,0,0,1-10.27,11.4c-4,.1-6.92-.89-6.43-5.83a9.71,9.71,0,0,0-2-6.36c-2.1-3.11-4.9-5.53-8.77-3.5s-3.79,5.37-1.81,9c2.36,4.28,1,6.67-3.92,6.78-4.43.1-7.58,2.18-6.85,6.67.83,5.1,5.42,6.37,9.6,5.12,5.41-1.62,10.41-2.45,16-.61,3.4,1.13,4.63,2.33,2.9,5.59-2,3.81-2.14,7.37,2.33,9.24,4.95,2.08,7-1.55,8.75-5.29a15.27,15.27,0,0,0,1.08-9.05c-.4-2.63,1.19-3.72,3-4.72,2.59-1.4,3.24,1.11,4.15,2.39,6,8.5,6.41,17.75,2.1,26.87a30,30,0,0,0-3,16.59,16.78,16.78,0,0,1-4,13.2c-1.65,1.88-3.08,2.8-4.31-.39a13,13,0,0,0-2.28-4.34c-4.65-4.95-6.55-10.26-4.33-17.11,1.26-3.89.59-8.47-4.54-9.13-5-.63-6.29,3-6.78,7.51-.94,8.68-5.05,12.25-14.66,13.61h0c2.1-2.74,4.33-5.26,3.61-9.28-.78-4.37.42-8,5-10.13,2.73-1.27,3.54-4,2.6-6.82a5.42,5.42,0,0,0-6.18-3.95,11.07,11.07,0,0,0-6,2.9c-2,1.71-3.79,4.36-6.81,2.83s-1.9-4.71-1.91-7.25q-.12-24,0-48.06c0-4.18-.85-7.65-5.79-7.59s-5.78,3.61-5.74,7.73c.09,7.36,0,14.72,0,23.53a23.85,23.85,0,0,1-1-2.5c-.66-4.44-1.5-9.19-7.38-8.58s-5.13,5.43-4.85,9.56c.22,3.32-.52,6.19-3.57,7.91-4,2.23-6.19,5.22-3.17,9.41s6.86,2.22,10.3.06a15.87,15.87,0,0,0,2.41-1.9c3.84-3.63,6.67-1.49,6.85,2.35C141.22,388.77,142.4,398.57,140.18,408.24Z" transform="translate(-76.05 -313.2)"/><path class="cls-3" d="M162.43,418.85h0c-3.25,1.67-5.43,4-3.82,7.87,1.68,4.09,5.19,4.21,8.83,3.46,1.81-.37,3.52-1.17,5.32-1.55,3.05-.66,6-5.36,9.23.18,2.92,5,4.45,9.82.77,14.92-5.33,7.36-15,10.18-23,5.2-9-5.6-16.51-5.24-25.68,0-12.54,7.14-28.06-3.43-27.27-17.6.29-5.26,3.07-8.33,8.07-9.49s8.36,1,10.43,5.46c.69,1.48,1.19,3.08,2,4.49,1.43,2.46,3.78,3.14,6.4,2.52s5.14-3.17,3.92-5.29c-4.21-7.35,1.73-12.9,2.55-19.29,2.26,8,.65,16.2.94,24.29.15,4.29.6,8.48,5.66,8.55,5.49.08,6-4.32,5.94-8.82-.15-8.41,0-16.82,0-25.23C154,414,156.18,418.22,162.43,418.85Z" transform="translate(-76.05 -313.2)"/><path class="cls-4" d="M144.21,367.37c0-9.47,0-18.5,0-27.54,0-2.14-.67-5.23,2.5-5.38,3.44-.17,3.3,2.92,3.3,5.41q0,24.7,0,49.41c0,3.22-.64,6.63,3.65,8.17,3.64,1.31,6.21.57,8.63-2.43,1.08-1.35,3-2.11,4.58-2.94a2.72,2.72,0,0,1,3.72,1.13,2.4,2.4,0,0,1-1.11,3.64c-6.17,3-7.72,8-6.68,14.37.28,1.69-.05,3.45-2.34,3.5-2,0-3-1.15-3.09-3.09a7.69,7.69,0,0,1-.14-1.84c1.07-5.45-2-7-7.23-7.07v28.07a47.86,47.86,0,0,1-.07,4.94c-.19,2-.9,3.74-3.36,3.49-2.14-.23-2.38-2-2.38-3.68,0-8,0-16.06,0-24.08-.06-10.5-.17-21-.27-31.48,0-3.52-1-6.32-4.7-7.85s-5.73.31-8,2.66a13.74,13.74,0,0,1-4.08,2.65,2.82,2.82,0,0,1-3.81-1,2.36,2.36,0,0,1,1.08-3.63c6.08-3.1,7.68-8.15,6.62-14.46-.32-1.92.3-3.46,2.31-3.6,1.83-.13,3,1,3.12,3a7.71,7.71,0,0,1,.13,1.84C135.38,365.3,138.49,367.12,144.21,367.37Z" transform="translate(-76.05 -313.2)"/><path class="cls-2" d="M167.88,460.82a8.15,8.15,0,0,1,1-3.68,14.29,14.29,0,0,1-3.24-1.13,4,4,0,0,1-2.64.7c-2.29-.16-4.6-.09-6.9,0-.6,0-.89-.11-1-.43h0c-.53,0-1,0-1.56-.08a1.5,1.5,0,0,1-.85.17c-1.55,0-3.1,0-4.65,0a.5.5,0,0,0-.35-.56,7.28,7.28,0,0,0-2.71-.07h-.09l-.24.06-.48.1a.49.49,0,0,0-.34.48l-2.12,0c-.59,0-1,0-1.13-.41a13.43,13.43,0,0,1-1.65.25c-.16.25-.46.35-1,.34-2.51-.06-5,0-7.55,0a2.37,2.37,0,0,1-1.62-.62l-.29-.25a15.87,15.87,0,0,1-3.38,1.34c1,1.3.83,2.71.73,4.12a4.24,4.24,0,0,0,.51,2.93.92.92,0,0,1,0,1.23,3.53,3.53,0,0,0,0,4.09,1,1,0,0,1,0,1.33,3.56,3.56,0,0,0,0,4,1,1,0,0,1,0,1.33,3.53,3.53,0,0,0,0,4,1,1,0,0,1,0,1.33,3.56,3.56,0,0,0,1.23,5.19,13.21,13.21,0,0,1,3.75,3.11,20.73,20.73,0,0,0,3.61,2.84c2.32,1.5,4.66,3,6.91,4.61a7.3,7.3,0,0,0,9.32.06,69.47,69.47,0,0,1,6.5-4.29,20.72,20.72,0,0,0,6.8-5.88,3.6,3.6,0,0,1,1.21-1.08,3.77,3.77,0,0,0,1.52-5.54.89.89,0,0,1,0-1.12,3.62,3.62,0,0,0,0-4.2.86.86,0,0,1,0-1.12,3.64,3.64,0,0,0,0-4.2.88.88,0,0,1,0-1.13,3.62,3.62,0,0,0,0-4.2c-.2-.33-.43-.59-.1-1A4.83,4.83,0,0,0,167.88,460.82Zm-38.51-1.08a1.57,1.57,0,0,1,.81-.22H132a1.86,1.86,0,0,1,.34,0h17.7c1,0,2,0,3,0,1.58,0,3.16,0,4.73,0h5.76a1.49,1.49,0,0,1,1.32.72.72.72,0,0,1,.21.59,1.56,1.56,0,0,1-1.53,1.93,2.4,2.4,0,0,1-.28,0h-33.2A1.61,1.61,0,0,1,129.37,459.74Zm1.29,10.64H152q3.62-.08,7.21,0h4.21a1.56,1.56,0,0,1,.74.17.92.92,0,0,1,.84,1,.76.76,0,0,1,0,.36,1.51,1.51,0,0,1-1.53,1.68H130.66a1.47,1.47,0,0,1-.94-.3.8.8,0,0,1-.59-.73.65.65,0,0,1,0-.25A1.54,1.54,0,0,1,130.66,470.38Zm32.93-2.13h-33a1.49,1.49,0,0,1-1-.39.75.75,0,0,1-.4-.6,1.58,1.58,0,0,1,1.44-2.21h21.14c2.74-.06,5.47-.06,8.21,0h3.66a1.57,1.57,0,0,1,.87.25.83.83,0,0,1,.5.6A1.59,1.59,0,0,1,163.59,468.25ZM149,494.69a3.44,3.44,0,0,1-3.77,0c-1.68-1-3.25-2.26-5.06-3.54H154C152.14,492.46,150.58,493.63,149,494.69Zm14.4-10.55H130.5a1.51,1.51,0,0,1-1-.35.75.75,0,0,1-.53-.7,1.09,1.09,0,0,1,0-.26,1.55,1.55,0,0,1,1.52-1.89h18.3c3.82-.12,7.65-.15,11.48-.05l1.41.05h1.66a1.6,1.6,0,0,1,.51.09c.73,0,1,.46,1,1.05a.83.83,0,0,1,0,.23A1.54,1.54,0,0,1,163.35,484.14Zm.32-5.41H130.58a1.45,1.45,0,0,1-1.08-.43.74.74,0,0,1-.35-.53,1.58,1.58,0,0,1,1.43-2.23h21.18c2.72-.07,5.45-.07,8.17,0h3.74A1.6,1.6,0,0,1,163.67,478.73Z" transform="translate(-76.05 -313.2)"/></g></svg>